<svg xmlns="http://www.w3.org/2000/svg" xmlns:xlink="http://www.w3.org/1999/xlink" width="500" zoomAndPan="magnify" viewBox="0 0 375 374.999991" height="500" preserveAspectRatio="xMidYMid meet" version="1.2"><defs><clipPath id="7e997ed7a9"><path d="M 3.953125 109.742188 L 114.074219 109.742188 L 114.074219 219.867188 L 3.953125 219.867188 Z M 3.953125 109.742188 "/></clipPath><clipPath id="bb70809a42"><path d="M 59.011719 109.742188 C 28.605469 109.742188 3.953125 134.394531 3.953125 164.804688 C 3.953125 195.214844 28.605469 219.867188 59.011719 219.867188 C 89.421875 219.867188 114.074219 195.214844 114.074219 164.804688 C 114.074219 134.394531 89.421875 109.742188 59.011719 109.742188 Z M 59.011719 109.742188 "/></clipPath></defs><g id="cb04e5fd8e"><g clip-rule="nonzero" clip-path="url(#7e997ed7a9)"><g clip-rule="nonzero" clip-path="url(#bb70809a42)"><path style=" stroke:none;fill-rule:nonzero;fill:#c3e703;fill-opacity:1;" d="M 3.953125 109.742188 L 114.074219 109.742188 L 114.074219 219.867188 L 3.953125 219.867188 Z M 3.953125 109.742188 "/></g></g><g style="fill:#000000;fill-opacity:1;"><g transform="translate(41.585853, 199.786489)"><path style="stroke:none" d="M 8.546875 0 L 8.546875 -37.75 L 1.9375 -37.75 L 1.9375 -48.140625 L 8.546875 -48.140625 L 8.546875 -53.765625 C 8.546875 -59.597656 10.015625 -63.742188 12.953125 -66.203125 C 15.898438 -68.660156 19.894531 -69.890625 24.9375 -69.890625 L 30.28125 -69.890625 L 30.28125 -59.3125 L 26.890625 -59.3125 C 24.753906 -59.3125 23.234375 -58.890625 22.328125 -58.046875 C 21.421875 -57.203125 20.96875 -55.773438 20.96875 -53.765625 L 20.96875 -48.140625 L 31.34375 -48.140625 L 31.34375 -37.75 L 20.96875 -37.75 L 20.96875 0 Z M 8.546875 0 "/></g></g><g style="fill:#000000;fill-opacity:1;"><g transform="translate(127.814753, 189.092226)"><path style="stroke:none" d="M 14.3125 -31 L 22.453125 -31 L 22.453125 -23.921875 L 14.546875 -23.921875 L 14.546875 0 L 5.359375 0 L 5.359375 -23.921875 L 0.46875 -23.921875 L 0.46875 -31 L 5.359375 -31 L 5.359375 -32.40625 C 5.359375 -36.019531 6.425781 -38.882812 8.5625 -41 C 10.707031 -43.125 13.726562 -44.1875 17.625 -44.1875 C 19 -44.1875 20.300781 -44.039062 21.53125 -43.75 C 22.769531 -43.457031 23.800781 -43.035156 24.625 -42.484375 L 22.21875 -35.828125 C 21.15625 -36.566406 19.914062 -36.9375 18.5 -36.9375 C 15.707031 -36.9375 14.3125 -35.40625 14.3125 -32.34375 Z M 14.3125 -31 "/></g></g><g style="fill:#000000;fill-opacity:1;"><g transform="translate(150.027758, 189.092226)"><path style="stroke:none" d="M 17.03125 -32.171875 C 21.9375 -32.171875 25.707031 -31 28.34375 -28.65625 C 30.976562 -26.320312 32.296875 -22.800781 32.296875 -18.09375 L 32.296875 0 L 23.6875 0 L 23.6875 -3.953125 C 21.957031 -1.003906 18.734375 0.46875 14.015625 0.46875 C 11.585938 0.46875 9.476562 0.0546875 7.6875 -0.765625 C 5.90625 -1.585938 4.539062 -2.722656 3.59375 -4.171875 C 2.65625 -5.628906 2.1875 -7.285156 2.1875 -9.140625 C 2.1875 -12.078125 3.296875 -14.390625 5.515625 -16.078125 C 7.734375 -17.773438 11.160156 -18.625 15.796875 -18.625 L 23.09375 -18.625 C 23.09375 -20.625 22.484375 -22.160156 21.265625 -23.234375 C 20.046875 -24.316406 18.222656 -24.859375 15.796875 -24.859375 C 14.097656 -24.859375 12.429688 -24.59375 10.796875 -24.0625 C 9.171875 -23.539062 7.789062 -22.828125 6.65625 -21.921875 L 3.359375 -28.34375 C 5.085938 -29.5625 7.160156 -30.503906 9.578125 -31.171875 C 11.992188 -31.835938 14.476562 -32.171875 17.03125 -32.171875 Z M 16.328125 -5.71875 C 17.890625 -5.71875 19.28125 -6.078125 20.5 -6.796875 C 21.71875 -7.523438 22.582031 -8.597656 23.09375 -10.015625 L 23.09375 -13.25 L 16.796875 -13.25 C 13.023438 -13.25 11.140625 -12.015625 11.140625 -9.546875 C 11.140625 -8.367188 11.597656 -7.4375 12.515625 -6.75 C 13.441406 -6.0625 14.710938 -5.71875 16.328125 -5.71875 Z M 16.328125 -5.71875 "/></g></g><g style="fill:#000000;fill-opacity:1;"><g transform="translate(186.38177, 189.092226)"><path style="stroke:none" d="M 14.90625 0.46875 C 12.269531 0.46875 9.695312 0.144531 7.1875 -0.5 C 4.675781 -1.144531 2.671875 -1.960938 1.171875 -2.953125 L 4.25 -9.546875 C 5.65625 -8.640625 7.359375 -7.898438 9.359375 -7.328125 C 11.367188 -6.765625 13.335938 -6.484375 15.265625 -6.484375 C 19.148438 -6.484375 21.09375 -7.445312 21.09375 -9.375 C 21.09375 -10.269531 20.5625 -10.914062 19.5 -11.3125 C 18.4375 -11.707031 16.804688 -12.039062 14.609375 -12.3125 C 12.015625 -12.707031 9.875 -13.160156 8.1875 -13.671875 C 6.5 -14.179688 5.035156 -15.082031 3.796875 -16.375 C 2.554688 -17.675781 1.9375 -19.523438 1.9375 -21.921875 C 1.9375 -23.921875 2.515625 -25.695312 3.671875 -27.25 C 4.835938 -28.800781 6.53125 -30.007812 8.75 -30.875 C 10.96875 -31.738281 13.585938 -32.171875 16.609375 -32.171875 C 18.847656 -32.171875 21.078125 -31.925781 23.296875 -31.4375 C 25.515625 -30.945312 27.351562 -30.269531 28.8125 -29.40625 L 25.75 -22.859375 C 22.957031 -24.429688 19.910156 -25.21875 16.609375 -25.21875 C 14.648438 -25.21875 13.175781 -24.941406 12.1875 -24.390625 C 11.207031 -23.835938 10.71875 -23.128906 10.71875 -22.265625 C 10.71875 -21.285156 11.25 -20.597656 12.3125 -20.203125 C 13.375 -19.816406 15.0625 -19.445312 17.375 -19.09375 C 19.96875 -18.65625 22.085938 -18.191406 23.734375 -17.703125 C 25.390625 -17.210938 26.828125 -16.316406 28.046875 -15.015625 C 29.265625 -13.722656 29.875 -11.921875 29.875 -9.609375 C 29.875 -7.640625 29.285156 -5.890625 28.109375 -4.359375 C 26.929688 -2.828125 25.210938 -1.640625 22.953125 -0.796875 C 20.691406 0.046875 18.007812 0.46875 14.90625 0.46875 Z M 14.90625 0.46875 "/></g></g><g style="fill:#000000;fill-opacity:1;"><g transform="translate(217.668613, 189.092226)"><path style="stroke:none" d="M 23.515625 -32.171875 C 27.441406 -32.171875 30.613281 -30.988281 33.03125 -28.625 C 35.445312 -26.269531 36.65625 -22.773438 36.65625 -18.140625 L 36.65625 0 L 27.453125 0 L 27.453125 -16.734375 C 27.453125 -19.242188 26.898438 -21.117188 25.796875 -22.359375 C 24.703125 -23.597656 23.113281 -24.21875 21.03125 -24.21875 C 18.71875 -24.21875 16.875 -23.5 15.5 -22.0625 C 14.125 -20.632812 13.4375 -18.503906 13.4375 -15.671875 L 13.4375 0 L 4.25 0 L 4.25 -43.71875 L 13.4375 -43.71875 L 13.4375 -28.40625 C 14.65625 -29.625 16.128906 -30.554688 17.859375 -31.203125 C 19.585938 -31.847656 21.472656 -32.171875 23.515625 -32.171875 Z M 23.515625 -32.171875 "/></g></g><g style="fill:#000000;fill-opacity:1;"><g transform="translate(258.382752, 189.092226)"><path style="stroke:none" d="M 4.25 -31.703125 L 13.4375 -31.703125 L 13.4375 0 L 4.25 0 Z M 8.84375 -36.125 C 7.15625 -36.125 5.78125 -36.613281 4.71875 -37.59375 C 3.65625 -38.570312 3.125 -39.789062 3.125 -41.25 C 3.125 -42.695312 3.65625 -43.910156 4.71875 -44.890625 C 5.78125 -45.878906 7.15625 -46.375 8.84375 -46.375 C 10.53125 -46.375 11.898438 -45.898438 12.953125 -44.953125 C 14.015625 -44.015625 14.546875 -42.835938 14.546875 -41.421875 C 14.546875 -39.890625 14.015625 -38.625 12.953125 -37.625 C 11.898438 -36.625 10.53125 -36.125 8.84375 -36.125 Z M 8.84375 -36.125 "/></g></g><g style="fill:#000000;fill-opacity:1;"><g transform="translate(276.117853, 189.092226)"><path style="stroke:none" d="M 19.328125 0.46875 C 15.984375 0.46875 12.984375 -0.226562 10.328125 -1.625 C 7.679688 -3.019531 5.613281 -4.953125 4.125 -7.421875 C 2.632812 -9.898438 1.890625 -12.707031 1.890625 -15.84375 C 1.890625 -18.988281 2.632812 -21.796875 4.125 -24.265625 C 5.613281 -26.742188 7.679688 -28.679688 10.328125 -30.078125 C 12.984375 -31.472656 15.984375 -32.171875 19.328125 -32.171875 C 22.660156 -32.171875 25.644531 -31.472656 28.28125 -30.078125 C 30.914062 -28.679688 32.976562 -26.742188 34.46875 -24.265625 C 35.957031 -21.796875 36.703125 -18.988281 36.703125 -15.84375 C 36.703125 -12.707031 35.957031 -9.898438 34.46875 -7.421875 C 32.976562 -4.953125 30.914062 -3.019531 28.28125 -1.625 C 25.644531 -0.226562 22.660156 0.46875 19.328125 0.46875 Z M 19.328125 -7.078125 C 21.679688 -7.078125 23.613281 -7.867188 25.125 -9.453125 C 26.644531 -11.046875 27.40625 -13.175781 27.40625 -15.84375 C 27.40625 -18.519531 26.644531 -20.648438 25.125 -22.234375 C 23.613281 -23.828125 21.679688 -24.625 19.328125 -24.625 C 16.972656 -24.625 15.023438 -23.828125 13.484375 -22.234375 C 11.953125 -20.648438 11.1875 -18.519531 11.1875 -15.84375 C 11.1875 -13.175781 11.953125 -11.046875 13.484375 -9.453125 C 15.023438 -7.867188 16.972656 -7.078125 19.328125 -7.078125 Z M 19.328125 -7.078125 "/></g></g><g style="fill:#000000;fill-opacity:1;"><g transform="translate(314.710852, 189.092226)"><path style="stroke:none" d="M 23.515625 -32.171875 C 27.441406 -32.171875 30.613281 -30.988281 33.03125 -28.625 C 35.445312 -26.269531 36.65625 -22.773438 36.65625 -18.140625 L 36.65625 0 L 27.453125 0 L 27.453125 -16.734375 C 27.453125 -19.242188 26.898438 -21.117188 25.796875 -22.359375 C 24.703125 -23.597656 23.113281 -24.21875 21.03125 -24.21875 C 18.71875 -24.21875 16.875 -23.5 15.5 -22.0625 C 14.125 -20.632812 13.4375 -18.503906 13.4375 -15.671875 L 13.4375 0 L 4.25 0 L 4.25 -31.703125 L 13.015625 -31.703125 L 13.015625 -27.984375 C 14.234375 -29.316406 15.742188 -30.347656 17.546875 -31.078125 C 19.359375 -31.804688 21.347656 -32.171875 23.515625 -32.171875 Z M 23.515625 -32.171875 "/></g></g><g style="fill:#c3e703;fill-opacity:1;"><g transform="translate(355.426424, 189.092226)"><path style="stroke:none" d="M 7.71875 0.46875 C 6.101562 0.46875 4.742188 -0.078125 3.640625 -1.171875 C 2.546875 -2.273438 2 -3.648438 2 -5.296875 C 2 -6.992188 2.546875 -8.359375 3.640625 -9.390625 C 4.742188 -10.429688 6.101562 -10.953125 7.71875 -10.953125 C 9.332031 -10.953125 10.6875 -10.429688 11.78125 -9.390625 C 12.882812 -8.359375 13.4375 -6.992188 13.4375 -5.296875 C 13.4375 -3.648438 12.882812 -2.273438 11.78125 -1.171875 C 10.6875 -0.078125 9.332031 0.46875 7.71875 0.46875 Z M 7.71875 0.46875 "/></g></g></g></svg>